<?xml version="1.0" encoding="UTF-8"?>
<svg width="40px" height="39px" viewBox="0 0 40 39" version="1.1" xmlns="http://www.w3.org/2000/svg" xmlns:xlink="http://www.w3.org/1999/xlink">
    <!-- Generator: Sketch 52.6 (67491) - http://www.bohemiancoding.com/sketch -->
    <title>touxiang_icon</title>
    <desc>Created with Sketch.</desc>
    <defs>
        <linearGradient x1="50%" y1="0%" x2="50%" y2="100%" id="linearGradient-1">
            <stop stop-color="#FFFFFF" stop-opacity="0.294921875" offset="0%"></stop>
            <stop stop-color="#FFFFFF" offset="100%"></stop>
        </linearGradient>
    </defs>
    <g id="页面-1" stroke="none" stroke-width="1" fill="none" fill-rule="evenodd">
        <g id="画板" transform="translate(0.000000, -1.000000)" fill-rule="nonzero">
            <g id="touxiang_icon" transform="translate(0.000000, -1.000000)">
                <g id="touxaing_icon" transform="translate(0.000000, 2.000000)">
                    <g id="头像" fill="#FF5400">
                        <g id="分组">
                            <path d="M19.8935043,0.138334482 C13.0273062,0.13833438 6.68267743,3.80140741 3.24957834,9.7477094 C-0.183520753,15.6940114 -0.183520753,23.0201576 3.24957834,28.9664596 C6.68267743,34.9127616 13.0273062,38.5758346 19.8935043,38.5758345 C30.5077268,38.5758345 39.1122543,29.971307 39.1122543,19.3570845 C39.1122543,8.74286195 30.5077268,0.138334482 19.8935043,0.138334482 Z" id="形状"></path>
                        </g>
                    </g>
                    <path d="M19.7705043,6.87258448 C21.8395187,6.87258445 23.7513668,7.97639046 24.785874,9.76820946 C25.8203812,11.5600285 25.8203812,13.7676405 24.785874,15.5594595 C23.7513668,17.3512785 21.8395187,18.4550845 19.7705043,18.4550845 C16.5720852,18.4550845 13.9792543,15.8622535 13.9792543,12.6638345 C13.9792543,9.46541542 16.5720852,6.87258448 19.7705043,6.87258448 Z" id="路径" fill="url(#linearGradient-1)"></path>
                    <path d="M9.64350431,29.8530845 C9.58456681,23.9183345 12.4853168,20.2334595 16.1215043,18.785647 L19.8550668,25.0150845 L23.7885043,18.929147 C27.2965668,20.466647 30.0845668,24.1079595 30.1409418,29.8582095 C23.6911293,32.4155845 16.8928168,32.6000845 9.64350431,29.8530845 Z" id="路径" fill="url(#linearGradient-1)"></path>
                </g>
            </g>
        </g>
    </g>
</svg>