<?xml version="1.0" encoding="UTF-8"?>
<svg width="422px" height="94px" viewBox="0 0 422 94" version="1.1" xmlns="http://www.w3.org/2000/svg" xmlns:xlink="http://www.w3.org/1999/xlink">
    <!-- Generator: Sketch 52.6 (67491) - http://www.bohemiancoding.com/sketch -->
    <title>baobiao_logo</title>
    <desc>Created with Sketch.</desc>
    <defs>
        <linearGradient x1="100%" y1="7.87453487%" x2="2.41655155%" y2="100%" id="linearGradient-1">
            <stop stop-color="#FF5400" offset="0%"></stop>
            <stop stop-color="#FF9764" offset="48.2180083%"></stop>
            <stop stop-color="#FF5400" offset="100%"></stop>
        </linearGradient>
    </defs>
    <g id="页面-1" stroke="none" stroke-width="1" fill="none" fill-rule="evenodd">
        <g id="baobiao--copy-3" transform="translate(-10.000000, -8.000000)">
            <g id="baobiao_logo" transform="translate(8.000000, 6.000000)">
                <g id="分组-2" transform="translate(2.000000, 2.000000)">
                    <g id="分组" transform="translate(0.048426, 0.000000)">
                        <polygon id="矩形-copy-2" fill="#FF5400" opacity="0.632463728" points="0.0423892824 59.0703816 62.9539952 31.8449877 125.865601 59.0703816 62.9539952 93.3918322"></polygon>
                        <polygon id="矩形" fill="#FF5400" opacity="0.393694196" points="8.78510936 39.5634451 62.9539952 16.1215185 117.122881 39.5634451 62.9539952 69.1153014"></polygon>
                        <path d="M17.7231443,20.420635 L62.9539952,0.846699259 L108.184846,20.420635 L62.9539952,45.0963429 L17.7231443,20.420635 Z M61.9360246,20.6978729 L66.3535715,23.207389 C67.0950017,23.62858 67.9701544,23.6686956 68.71974,23.3794068 C69.5858566,23.1851297 70.2568041,22.4723102 70.3221291,21.5812696 L71.195076,9.67416219 C71.2754286,8.57814322 70.4090417,7.62751439 69.2599467,7.55087328 C68.1108518,7.47423217 67.1141876,8.3006012 67.0338351,9.39662017 L66.4160933,17.8226964 L61.6800488,15.1322485 C61.172498,14.8439195 60.6022825,14.734169 60.0525812,14.7864214 C58.8456012,14.7912044 57.8014687,15.6450578 57.6379089,16.8135871 L55.4619161,32.3596534 C55.4598129,32.3746793 55.4578695,32.3897251 55.4560861,32.4047886 C55.3103305,33.6359041 56.2385187,34.7466209 57.5292524,34.8856441 C58.85417,35.0283492 60.0553641,34.13398 60.2318066,32.8734119 L61.9360246,20.6978729 Z" id="合并形状" fill="#FF5400"></path>
                        <path d="" id="路径-35" stroke="#979797"></path>
                    </g>
                    <path d="M168.708621,20.3445509 L195.696002,20.3445509 L195.696002,35.9081673 C195.854666,39.7161076 194.268048,41.4613874 190.9361,41.144059 L178.084366,41.144059 L178.084366,35.8142312 L189.176198,35.8142312 C189.652191,35.8142312 189.890184,35.5762385 189.890184,35.100246 L189.890184,26.1503689 L174.514439,26.1503689 L174.514439,46.2860148 L196.171992,46.2860148 L196.171992,52.5678229 L189.377531,64.9463339 L191.519487,67.8022749 C192.471472,68.9129241 194.823347,69.3889095 195.933997,69.2302453 L195.933997,74.3694343 L191.650085,74.3694343 C189.904779,74.2107701 188.714816,73.7347847 188.080159,72.9414638 L185.938203,70.3235179 L183.796248,73.1794589 C183.002927,74.131444 181.733632,74.6074294 179.988326,74.6074294 L175.736363,74.6074294 L175.736363,69.9435671 L176.926339,69.9435671 C177.560996,70.1022313 178.958767,69.9086223 179.593424,69.1153014 L182.13789,66.4290615 L174.514439,57.7097786 L174.514439,74.6074294 L168.708621,74.6074294 L168.708621,20.3445509 Z M183.62689,58.6174278 L185.05486,60.2833934 L190.604169,51.6158426 L174.514439,51.6158426 L174.514439,54.4399427 L183.62689,58.6174278 Z M142.623099,25.3424476 L150.714931,25.3424476 L150.714931,20.3445509 L156.520749,20.3445509 L156.520749,25.3424476 L163.804661,25.3424476 L163.804661,31.1482656 L156.520749,31.1482656 L156.520749,37.4801968 L162.85268,37.4801968 L162.85268,44.4759902 L156.520749,44.4759902 L156.520749,69.6095327 C156.520749,73.1001447 155.950837,74.5684171 153.094882,74.5684171 L145.003049,74.8454245 L145.003049,69.467577 L149.524956,69.467577 C150.159613,69.467577 150.556267,69.0709225 150.714931,68.2776016 L150.714931,56.2818082 L148.572976,60.0897294 C147.779655,61.6763713 146.589691,62.3903494 145.003049,62.2316852 L142.385103,62.2316852 L142.385103,57.6158426 C143.178424,57.9331709 143.892402,57.3778546 144.527059,55.949877 L150.714931,43.8121279 L150.714931,31.1482656 L142.623099,31.1482656 L142.623099,25.3424476 Z M219.30079,26.9603935 L219.30079,21.5345263 L241.958342,21.5345263 L241.958342,19.1545755 L248.526165,19.1545755 L248.526165,21.2965313 L271.183717,21.2965313 L271.183717,26.7223984 L248.526165,26.7223984 L248.526165,32.4823001 L270.945722,32.4823001 L270.945722,38.3841574 L248.526165,38.3841574 L248.526165,44.3820541 L272.135698,44.3820541 L272.135698,50.2839115 L234.912426,50.2839115 L229.438539,57.9477737 L229.438539,66.5155966 C229.438539,66.9915892 229.676532,67.2295819 230.152524,67.2295819 L246.432229,67.2295819 L246.432229,73.6554491 L227.868613,73.6554491 C224.695329,73.1794565 222.950049,71.4341767 222.632721,68.4195573 L222.632721,62.7076753 L218.34881,62.7076753 L218.34881,55.805818 L220.25277,55.805818 C221.522084,55.9644822 222.791378,55.329835 224.060691,53.9018573 L224.536682,53.4258672 L226.440642,50.2839115 L218.34881,50.2839115 L218.34881,44.3820541 L241.958342,44.3820541 L241.958342,38.3841574 L219.062795,38.3841574 L219.062795,32.4823001 L241.958342,32.4823001 L241.958342,26.9603935 L219.30079,26.9603935 Z M247.8602,54.8538377 L254.286067,60.3277245 L254.286067,56.0438131 L260.711934,56.0438131 C261.981247,56.2024773 262.853887,55.4091683 263.32988,53.6638623 L271.183717,53.6638623 L269.755747,58.1857688 C268.645098,61.0417241 266.979149,62.4696803 264.75785,62.4696803 L256.904013,62.4696803 L259.759954,64.8496311 C259.918618,65.1669594 260.235941,65.484283 260.711934,65.8016114 C261.981247,66.9122607 263.250542,67.3882461 264.519855,67.2295819 L271.659708,67.2295819 L271.659708,73.417454 L262.711934,73.417454 C260.6493,73.2587898 258.745358,72.6241426 257.000052,71.5134933 L237.008465,54.8538377 L247.8602,54.8538377 Z M341.293586,20.582546 L341.293586,19.6305657 L346.909428,19.6305657 L346.909428,23.2004919 C346.909428,27.6909909 345.571063,27.9123739 340.959551,27.9123739 L325.489871,27.9123739 L309.686156,34.6242558 L322.871925,34.6242558 L326.679847,33.1962853 L342.053487,33.1962853 L309.924152,46.7620049 L339.389625,46.7620049 C340.500274,46.9206691 341.055591,46.3653528 341.055591,45.0960394 L341.055591,40.0981427 L347.147423,40.0981427 L347.147423,47.7139852 C346.909428,52.9018573 344.655301,52.6638623 340.483561,52.6638623 L323.775886,52.6638623 L323.775886,74.1314392 L316.970068,74.1314392 L316.970068,52.9018573 L292.884545,52.9018573 L292.884545,46.7620049 L309.402245,40.2881181 L292.884545,40.2881181 L292.884545,33.9102706 L310.59222,27.9123739 L292.884545,27.9123739 L292.884545,22.0105165 L339.62762,22.0105165 C340.73827,22.1691807 341.293586,21.6931953 341.293586,20.582546 Z M300.358432,67.0396065 L304.880338,56.2818082 L312.400142,56.2818082 L305.736279,71.7514884 C305.260287,73.3381302 303.911662,74.0521083 301.690363,73.8934441 L292.884545,73.8934441 L292.884545,67.9915868 L299.168457,67.9915868 C299.644449,68.150251 300.041104,67.8329274 300.358432,67.0396065 Z M334.533684,71.0375032 L328.345812,56.2818082 L335.62762,56.2818082 L339.911532,67.0396065 C340.22886,68.1502557 340.863507,68.5469102 341.815492,68.2295819 L347.147423,68.2295819 L347.147423,73.8934441 L339.055591,73.8934441 C336.516964,74.0521083 335.009677,73.1001375 334.533684,71.0375032 Z M401.787612,24.2485116 L401.787612,19.6305657 L406.831425,19.6305657 L406.831425,24.2485116 L420.969174,24.2485116 L420.969174,28.9123739 L398.7932,28.9123739 L394.174779,41.7641082 L415.401351,41.7641082 C416.194672,41.9227724 416.591326,41.5261179 416.591326,40.5741328 L416.591326,32.244305 L421.207169,32.244305 L421.207169,41.7641082 C421.207169,44.9373918 419.779213,46.4446789 416.923257,46.2860148 L411.462555,46.2860148 L411.462555,67.5636163 C411.303891,68.9915939 411.859208,69.6262411 413.128521,69.467577 L420.969174,69.467577 L420.969174,73.8934441 L410.735385,73.8934441 C407.403438,73.8934441 405.81682,72.1481643 405.975484,68.6575524 L405.975484,46.2860148 L388.125853,46.2860148 L388.125853,43.050123 L393.599739,28.9123739 L388.125853,28.9123739 L388.125853,24.2485116 L401.787612,24.2485116 Z M366.706295,35.338241 L375.512113,19.8685608 L381.603946,19.8685608 L371.084143,39.0042066 L377.702089,39.0042066 L382.03402,31.0543296 L388.363848,31.0543296 L374.988104,55.4258672 L386.697882,55.4258672 L386.697882,60.3277245 L366.706295,60.3277245 L366.706295,56.6971209 L375.370158,43.6680689 L366.706295,43.6680689 L366.706295,35.338241 Z M394.409764,66.8496311 L397.02771,48.4279705 L402.405557,48.4279705 L399.549617,68.6575524 C399.232288,72.3068285 397.566339,73.9727774 394.55172,73.6554491 L388.363848,73.6554491 L388.363848,69.2295819 L390.029813,69.2295819 C391.457791,69.5469102 394.2511,68.7536012 394.409764,66.8496311 Z M386.459887,73.6554491 L366.706295,73.6554491 L366.706295,68.9915868 L386.459887,68.9915868 L386.459887,73.6554491 Z" id="报表系统" fill="url(#linearGradient-1)"></path>
                </g>
            </g>
        </g>
    </g>
</svg>