<?xml version="1.0" encoding="UTF-8"?>
<svg width="120px" height="94px" viewBox="0 0 120 94" version="1.1" xmlns="http://www.w3.org/2000/svg" xmlns:xlink="http://www.w3.org/1999/xlink">
    <!-- Generator: Sketch 52.6 (67491) - http://www.bohemiancoding.com/sketch -->
    <title>baobiao_logo</title>
    <desc>Created with Sketch.</desc>
    <g id="页面-1" stroke="none" stroke-width="1" fill="none" fill-rule="evenodd">
        <g id="baobiao-" transform="translate(-10.000000, -8.000000)">
            <g id="baobiao_logo" transform="translate(8.000000, 8.000000)">
                <g id="分组" transform="translate(1.000000, 0.000000)">
                    <polygon id="矩形-copy-2" fill="#FF5400" opacity="0.632463728" points="0.994241971 59.0703816 61 31.8449877 121.005758 59.0703816 61 93.3918322"></polygon>
                    <polygon id="矩形" fill="#FF5400" opacity="0.393694196" points="9.33314126 39.5634451 61 16.1215185 112.666859 39.5634451 61 69.1153014"></polygon>
                    <path d="M17.8583339,20.420635 L61,0.846699259 L104.141666,20.420635 L61,45.0963429 L17.8583339,20.420635 Z M60.0290488,20.6978729 L64.242552,23.207389 C64.9497361,23.62858 65.7844659,23.6686956 66.4994287,23.3794068 C67.3255399,23.1851297 67.9654968,22.4723102 68.0278044,21.5812696 L68.8604305,9.67416219 C68.9370716,8.57814322 68.1107025,7.62751439 67.0146836,7.55087328 C65.9186646,7.47423217 64.9680358,8.3006012 64.8913947,9.39662017 L64.302186,17.8226964 L59.7848964,15.1322485 C59.3007891,14.8439195 58.7569115,14.734169 58.2326005,14.7864214 C57.0813702,14.7912044 56.0854655,15.6450578 55.9294605,16.8135871 L53.8539754,32.3596534 C53.8519694,32.3746793 53.8501157,32.3897251 53.8484146,32.4047886 C53.7093915,33.6359041 54.5947072,34.7466209 55.8258227,34.8856441 C57.0895432,35.0283492 58.2352549,34.13398 58.4035476,32.8734119 L60.0290488,20.6978729 Z" id="合并形状" fill="#FF5400"></path>
                    <path d="" id="路径-35" stroke="#979797"></path>
                </g>
            </g>
        </g>
    </g>
</svg>